<svg viewBox="0 0 18 18" xmlns="http://www.w3.org/2000/svg">
    <path fill="white" fill-rule="evenodd" clip-rule="evenodd" d="M10.8607 9.00003V9.00003L17.5969 2.26387C18.1107 1.75003 18.1107 0.916924 17.5969 0.403082C17.083 -0.11076 16.2499 -0.11076 15.7361 0.403082L8.99991 7.13919L2.26375 0.403082C1.74985 -0.11076 0.916802 -0.11076 0.40296 0.403082C-0.110882 0.916924 -0.110882 1.75003 0.40296 2.26387L7.13906 8.99998V8.99998L0.40296 15.7361C-0.110882 16.25 -0.110882 17.0831 0.40296 17.5969C0.916854 18.1108 1.74991 18.1108 2.26375 17.5969L8.99985 10.8608L15.736 17.597C16.2499 18.1108 17.083 18.1108 17.5968 17.597C18.1106 17.0831 18.1106 16.25 17.5968 15.7362L10.8607 9.00003Z" />
</svg>
