<?xml version="1.0" encoding="UTF-8"?>
<svg id="Capa_3" data-name="Capa 3" xmlns="http://www.w3.org/2000/svg" xmlns:xlink="http://www.w3.org/1999/xlink" viewBox="0 0 1622.5 627.33">
  <defs>
    <style>
      .cls-1 {
        fill: url(#Degradado_sin_nombre_6-2);
      }

      .cls-2 {
        fill: url(#Degradado_sin_nombre_6);
      }

      .cls-3 {
        fill: #04112d;
      }

      .cls-4 {
        fill: url(#Degradado_sin_nombre_6-3);
      }

      .cls-5 {
        fill: url(#Degradado_sin_nombre_6-4);
      }

      .cls-6 {
        font-family: ArialMT, Arial;
        font-size: 72px;
      }
    </style>
    <linearGradient id="Degradado_sin_nombre_6" data-name="Degradado sin nombre 6" x1="-7842.26" y1="6207.11" x2="-7629.82" y2="6333.33" gradientTransform="translate(-6110.23 -7413.47) rotate(-90)" gradientUnits="userSpaceOnUse">
      <stop offset="0" stop-color="#0f6aef"/>
      <stop offset="1" stop-color="#009ee2"/>
    </linearGradient>
    <linearGradient id="Degradado_sin_nombre_6-2" data-name="Degradado sin nombre 6" x1="219.5" y1="75.67" x2="431.93" y2="201.89" gradientTransform="matrix(1,0,0,1,0,0)" xlink:href="#Degradado_sin_nombre_6"/>
    <linearGradient id="Degradado_sin_nombre_6-3" data-name="Degradado sin nombre 6" x1="219.5" y1="-2233.47" x2="431.93" y2="-2107.25" gradientTransform="translate(0 -1681.81) scale(1 -1)" xlink:href="#Degradado_sin_nombre_6"/>
    <linearGradient id="Degradado_sin_nombre_6-4" data-name="Degradado sin nombre 6" x1="-5571.38" y1="-8215.59" x2="-5358.94" y2="-8089.37" gradientTransform="translate(-7642.74 5769.91) rotate(90)" xlink:href="#Degradado_sin_nombre_6"/>
  </defs>
  <g>
    <text/>
    <path class="cls-2" d="m88.6,207.02c-15.2,15.2-23.58,35.42-23.58,56.92,0,17.97,5.85,35.05,16.65,49.04-11.48,14.25-17.72,31.84-17.72,50.4,0,21.5,8.37,41.72,23.58,56.92,15.2,15.2,35.42,23.58,56.92,23.58,21.5,0,41.72-8.37,56.92-23.58l93.74-93.74,4.95-4.95,8.49-8.49-8.49-8.49-4.95-4.95-92.68-92.68c-15.2-15.2-35.42-23.58-56.92-23.58-21.5,0-41.72,8.37-56.92,23.58Zm6.35,156.37c0-13.22,5.15-25.65,14.5-35l6.77-6.77,8.48-8.48-8.48-8.49-5.7-5.7c-9.35-9.35-14.5-21.78-14.5-35,0-13.22,5.15-25.65,14.5-35,9.35-9.35,21.78-14.5,35-14.5,13.22,0,25.65,5.15,35,14.5l84.19,84.19-85.26,85.26c-9.35,9.35-21.78,14.5-35,14.5-13.22,0-25.65-5.15-35-14.5-9.35-9.35-14.5-21.78-14.5-35Z"/>
    <path class="cls-1" d="m441.27,67.41c-15.2-15.2-35.42-23.58-56.92-23.58-17.97,0-35.05,5.85-49.04,16.65-14.25-11.48-31.84-17.72-50.4-17.72-21.5,0-41.72,8.37-56.92,23.58-15.2,15.2-23.58,35.42-23.58,56.92s8.37,41.72,23.58,56.92l93.74,93.74,4.95,4.95,8.49,8.49,8.49-8.49,4.95-4.95,92.68-92.68c15.2-15.2,23.58-35.42,23.58-56.92s-8.37-41.72-23.58-56.92Zm-156.37,6.35c13.22,0,25.65,5.15,35,14.5l6.77,6.77,8.48,8.48,8.49-8.48,5.7-5.7c9.35-9.35,21.78-14.5,35-14.5s25.65,5.15,35,14.5c9.35,9.35,14.5,21.78,14.5,35,0,13.22-5.15,25.65-14.5,35l-84.19,84.19-85.26-85.26c-9.35-9.35-14.5-21.78-14.5-35s5.15-25.65,14.5-35c9.35-9.35,21.78-14.5,35-14.5Z"/>
    <path class="cls-4" d="m441.27,559.92c-15.2,15.2-35.42,23.58-56.92,23.58-17.97,0-35.05-5.85-49.04-16.65-14.25,11.48-31.84,17.72-50.4,17.72-21.5,0-41.72-8.37-56.92-23.58-15.2-15.2-23.58-35.42-23.58-56.92s8.37-41.72,23.58-56.92l93.74-93.74,4.95-4.95,8.49-8.49,8.49,8.49,4.95,4.95,92.68,92.68c15.2,15.2,23.58,35.42,23.58,56.92s-8.37,41.72-23.58,56.92Zm-156.37-6.35c13.22,0,25.65-5.15,35-14.5l6.77-6.77,8.48-8.48,8.49,8.48,5.7,5.7c9.35,9.35,21.78,14.5,35,14.5s25.65-5.15,35-14.5c9.35-9.35,14.5-21.78,14.5-35,0-13.22-5.15-25.65-14.5-35l-84.19-84.19-85.26,85.26c-9.35,9.35-14.5,21.78-14.5,35s5.15,25.65,14.5,35c9.35,9.35,21.78,14.5,35,14.5Z"/>
    <path class="cls-5" d="m581.12,420.31c15.2-15.2,23.58-35.42,23.58-56.92,0-17.97-5.85-35.05-16.65-49.04,11.48-14.25,17.72-31.84,17.72-50.4,0-21.5-8.37-41.72-23.58-56.92-15.2-15.2-35.42-23.58-56.92-23.58-21.5,0-41.72,8.37-56.92,23.58l-93.74,93.74-4.95,4.95-8.49,8.49,8.49,8.49,4.95,4.95,92.68,92.68c15.2,15.2,35.42,23.58,56.92,23.58,21.5,0,41.72-8.37,56.92-23.58Zm-6.35-156.37c0,13.22-5.15,25.65-14.5,35l-6.77,6.77-8.48,8.48,8.48,8.49,5.7,5.7c9.35,9.35,14.5,21.78,14.5,35,0,13.22-5.15,25.65-14.5,35-9.35,9.35-21.78,14.5-35,14.5-13.22,0-25.65-5.15-35-14.5l-84.19-84.19,85.26-85.26c9.35-9.35,21.78-14.5,35-14.5,13.22,0,25.65,5.15,35,14.5,9.35,9.35,14.5,21.78,14.5,35Z"/>
  </g>
  <g>
    <polygon class="cls-3" points="734.65 341.58 681.1 219.34 658.16 219.34 723.58 368.02 744.61 368.02 809.82 219.34 788.57 219.34 734.65 341.58"/>
    <rect class="cls-3" x="825.96" y="255.45" width="20.39" height="112.58"/>
    <path class="cls-3" d="m836.15,207.23c-3.97,0-7.26,1.27-9.88,3.82-2.62,2.55-3.93,5.73-3.93,9.56s1.31,6.8,3.93,9.35c2.62,2.55,5.91,3.82,9.88,3.82s7.43-1.31,9.98-3.93c2.55-2.62,3.82-5.84,3.82-9.67s-1.31-6.76-3.93-9.24c-2.62-2.48-5.91-3.72-9.88-3.72Z"/>
    <path class="cls-3" d="m926.21,352.09c-5.67,0-10.02-1.63-13.06-4.89-3.05-3.26-4.57-7.93-4.57-14.02v-60.96h32.29v-16.78h-32.29v-24.64h-20.39v24.64h-19.12v16.78h19.12v61.81c0,11.33,3.11,20.04,9.35,26.13,6.23,6.09,15.01,9.13,26.34,9.13,4.67,0,9.17-.64,13.49-1.91,4.32-1.27,8.04-3.26,11.15-5.95l-6.37-14.66c-4.25,3.54-9.56,5.31-15.93,5.31Z"/>
    <path class="cls-3" d="m1049.83,265.64c-8.36-7.5-20.25-11.26-35.68-11.26-8.92,0-17.45,1.24-25.59,3.72-8.14,2.48-15.12,6.05-20.92,10.73l8.5,15.29c4.39-3.68,9.77-6.62,16.14-8.81,6.37-2.19,12.88-3.29,19.54-3.29,10.05,0,17.59,2.37,22.62,7.12,5.02,4.75,7.54,11.44,7.54,20.07v4.04h-32.29c-11.19,0-20.07,1.49-26.66,4.46s-11.33,6.94-14.23,11.9c-2.9,4.96-4.35,10.48-4.35,16.57s1.7,12.07,5.1,17.1c3.4,5.03,8.25,8.96,14.55,11.79,6.3,2.83,13.63,4.25,21.98,4.25,10.33,0,18.9-1.95,25.7-5.84,4.77-2.73,8.51-6.16,11.26-10.26v14.83h19.33v-67.97c0-15.43-4.18-26.9-12.53-34.41Zm-20.29,82.84c-5.73,3.4-12.43,5.1-20.07,5.1s-13.88-1.66-18.27-4.99c-4.39-3.33-6.58-7.75-6.58-13.28,0-4.81,1.77-8.92,5.31-12.32,3.54-3.4,10.41-5.1,20.6-5.1h31.44v15.72c-2.55,6.51-6.69,11.47-12.43,14.87Z"/>
    <polygon class="cls-3" points="1243.76 219.34 1182.55 323.78 1120.56 219.34 1103.14 219.34 1103.14 368.02 1123.53 368.02 1123.53 260.27 1177.27 349.97 1187.04 349.97 1240.8 259.6 1241 368.02 1261.39 368.02 1261.17 219.34 1243.76 219.34"/>
    <path class="cls-3" d="m1377.99,261.61c-8.36-4.81-17.98-7.22-28.89-7.22s-20.43,2.44-28.99,7.33c-8.57,4.88-15.29,11.65-20.18,20.28-4.88,8.64-7.33,18.55-7.33,29.74s2.51,21.1,7.54,29.74c5.02,8.64,12.11,15.44,21.24,20.39,9.13,4.96,19.72,7.43,31.75,7.43,9.35,0,17.81-1.56,25.38-4.67,7.57-3.11,13.91-7.65,19.01-13.59l-11.26-13.17c-4.11,4.53-8.89,7.93-14.34,10.2-5.45,2.27-11.51,3.4-18.16,3.4-8.07,0-15.22-1.63-21.45-4.88-6.23-3.26-11.08-7.82-14.55-13.7-2.56-4.33-4.17-9.12-4.84-14.34h91.4c.14-.99.25-2.05.32-3.19.07-1.13.11-2.12.11-2.97,0-11.61-2.37-21.77-7.12-30.48-4.75-8.71-11.29-15.47-19.65-20.29Zm-47.79,14.76c5.52-3.19,11.82-4.78,18.9-4.78s13.56,1.59,19.01,4.78c5.45,3.19,9.73,7.61,12.85,13.28,2.36,4.3,3.78,9.04,4.27,14.23h-72.35c.6-5.16,2.04-9.87,4.36-14.12,3.11-5.73,7.43-10.2,12.96-13.38Z"/>
    <path class="cls-3" d="m1518.82,210.42v62.14c-3.82-4.93-8.34-8.88-13.59-11.8-7.65-4.25-16.22-6.37-25.7-6.37-10.91,0-20.64,2.41-29.21,7.22-8.57,4.82-15.33,11.51-20.29,20.07-4.96,8.57-7.43,18.59-7.43,30.06s2.48,21.53,7.43,30.16c4.96,8.64,11.72,15.37,20.29,20.18,8.57,4.82,18.3,7.22,29.21,7.22,9.77,0,18.48-2.16,26.13-6.48,5.5-3.11,10.17-7.32,14.02-12.59v17.79h19.54v-157.61h-20.39Zm-4.78,122.24c-3.33,6.02-7.86,10.66-13.59,13.91-5.74,3.26-12.14,4.88-19.22,4.88s-13.67-1.63-19.33-4.88c-5.67-3.26-10.2-7.89-13.59-13.91-3.4-6.02-5.1-12.99-5.1-20.92s1.7-15.04,5.1-20.92c3.4-5.88,7.93-10.44,13.59-13.7,5.66-3.26,12.11-4.89,19.33-4.89s13.49,1.63,19.22,4.89c5.73,3.26,10.26,7.83,13.59,13.7,3.33,5.88,4.99,12.85,4.99,20.92s-1.67,14.91-4.99,20.92Z"/>
  </g>
  <text class="cls-6" transform="translate(1103.14 453.68)"><tspan x="0" y="0">Salud Integral</tspan></text>
</svg>