<svg id="Grupo_34" data-name="Grupo 34" xmlns="http://www.w3.org/2000/svg" xmlns:xlink="http://www.w3.org/1999/xlink" width="252.858" height="252.852" viewBox="0 0 252.858 252.852">
  <defs>
    <linearGradient id="linear-gradient" x1="0.716" y1="0.208" x2="0.292" y2="0.643" gradientUnits="objectBoundingBox">
      <stop offset="0" stop-color="#0f6aef"/>
      <stop offset="1" stop-color="#f7ff00"/>
    </linearGradient>
    <linearGradient id="linear-gradient-2" x1="0.236" y1="0.5" x2="0.801" y2="0.576" xlink:href="#linear-gradient"/>
    <linearGradient id="linear-gradient-3" x1="0.818" y1="0.151" x2="0.755" y2="0.653" xlink:href="#linear-gradient"/>
    <linearGradient id="linear-gradient-4" x1="0.5" y1="0.108" x2="0.5" y2="0.778" xlink:href="#linear-gradient"/>
  </defs>
  <path id="Trazado_73" data-name="Trazado 73" d="M110.538,11.5A37.575,37.575,0,0,0,61.088,8.27,37.572,37.572,0,0,0,0,37.568,37.308,37.308,0,0,0,11,64.131l43.747,43.747,2.31,2.31,3.962,3.962,3.962-3.962,2.31-2.31,43.252-43.252a37.563,37.563,0,0,0,0-53.127ZM37.563,14.467A22.949,22.949,0,0,1,53.9,21.234l3.159,3.159,3.958,3.957,3.962-3.957,2.66-2.66A23.1,23.1,0,1,1,100.3,54.4l-39.29,39.29L21.225,53.9A23.1,23.1,0,0,1,37.559,14.467Z" transform="translate(252.858 65.65) rotate(90)" fill="url(#linear-gradient)"/>
  <path id="Trazado_74" data-name="Trazado 74" d="M110.538,11.5A37.575,37.575,0,0,0,61.088,8.27,37.572,37.572,0,0,0,0,37.568,37.308,37.308,0,0,0,11,64.131l43.747,43.747,2.31,2.31,3.962,3.962,3.962-3.962,2.31-2.31,43.252-43.252a37.563,37.563,0,0,0,0-53.127ZM37.563,14.467A22.949,22.949,0,0,1,53.9,21.234l3.159,3.159,3.957,3.957,3.962-3.957,2.66-2.66A23.1,23.1,0,1,1,100.3,54.4l-39.29,39.29L21.225,53.9A23.1,23.1,0,0,1,37.559,14.467Z" transform="translate(187.208 252.852) rotate(180)" fill="url(#linear-gradient-2)"/>
  <path id="Trazado_75" data-name="Trazado 75" d="M110.538,11.5A37.575,37.575,0,0,0,61.088,8.27,37.572,37.572,0,0,0,0,37.568,37.308,37.308,0,0,0,11,64.131l43.747,43.747,2.31,2.31,3.962,3.962,3.962-3.962,2.31-2.31,43.252-43.252a37.563,37.563,0,0,0,0-53.127ZM37.563,14.467A22.949,22.949,0,0,1,53.9,21.234l3.159,3.159,3.958,3.957,3.962-3.957,2.66-2.66A23.1,23.1,0,1,1,100.3,54.4l-39.29,39.29L21.225,53.9A23.1,23.1,0,0,1,37.559,14.467Z" transform="translate(0 187.202) rotate(-90)" fill="url(#linear-gradient-3)"/>
  <path id="Trazado_76" data-name="Trazado 76" d="M110.538,11.5A37.575,37.575,0,0,0,61.088,8.27,37.572,37.572,0,0,0,0,37.568,37.308,37.308,0,0,0,11,64.131l43.747,43.747,2.31,2.31,3.962,3.962,3.962-3.962,2.31-2.31,43.252-43.252a37.563,37.563,0,0,0,0-53.127ZM37.563,14.467A22.949,22.949,0,0,1,53.9,21.234l3.159,3.159,3.958,3.957,3.962-3.957,2.66-2.66A23.1,23.1,0,1,1,100.3,54.4l-39.29,39.29L21.225,53.9A23.1,23.1,0,0,1,37.559,14.467Z" transform="translate(65.657 0)" fill="url(#linear-gradient-4)"/>
</svg>
