<svg xmlns="http://www.w3.org/2000/svg" xmlns:xlink="http://www.w3.org/1999/xlink" width="500" zoomAndPan="magnify" viewBox="0 0 375 374.999991" height="500" preserveAspectRatio="xMidYMid meet" version="1.0">
    <defs>
        <g/>
        <clipPath id="0e9a39040d">
            <path d="M 93 55.335938 L 282 55.335938 L 282 245 L 93 245 Z M 93 55.335938 " clip-rule="nonzero"/>
        </clipPath>
    </defs>
    <rect x="-37.5" width="450" fill="#ffffff" y="-37.499999" height="449.999989" fill-opacity="1"/>
    <rect x="-37.5" width="450" fill="#ffffff" y="-37.499999" height="449.999989" fill-opacity="1"/>
    <g clip-path="url(#0e9a39040d)">
        <path fill="#0179bd" d="M 253.042969 86.890625 C 253.042969 86.890625 261.652344 93.507812 273.996094 94.503906 C 275.390625 94.605469 276.085938 96.199219 275.191406 97.292969 C 271.257812 102.070312 260.855469 110.980469 241.796875 103.960938 C 241.796875 103.960938 248.164062 112.125 255.480469 115.90625 C 256.675781 116.554688 256.675781 118.246094 255.480469 118.890625 C 249.160156 122.277344 233.980469 128.148438 223.929688 114.015625 C 223.929688 114.015625 212.679688 131.035156 194.117188 116.355469 L 194.117188 238.636719 C 194.117188 241.125 192.671875 243.265625 190.582031 244.3125 C 189.6875 244.757812 188.691406 244.957031 187.597656 244.957031 C 184.164062 244.859375 181.476562 241.921875 181.476562 238.4375 L 181.476562 116.304688 L 180.777344 116.304688 C 162.164062 131.035156 150.964844 113.964844 150.964844 113.964844 C 140.914062 128.050781 125.78125 122.175781 119.414062 118.84375 C 118.21875 118.195312 118.21875 116.453125 119.414062 115.855469 C 126.777344 112.074219 133.097656 103.910156 133.097656 103.910156 C 114.085938 110.929688 103.6875 102.019531 99.753906 97.292969 C 98.859375 96.246094 99.554688 94.65625 100.949219 94.503906 C 113.292969 93.507812 121.902344 86.890625 121.902344 86.890625 C 100.5 88.683594 94.675781 75.992188 93.132812 70.21875 C 92.785156 68.972656 93.882812 67.828125 95.125 68.128906 C 103.4375 69.917969 113.640625 69.769531 124.4375 68.625 C 129.714844 68.078125 135.089844 67.28125 140.515625 66.335938 C 164.902344 62.054688 166.496094 97.34375 180.828125 97.34375 L 181.523438 97.34375 L 181.523438 85.496094 C 175.503906 82.859375 171.472656 76.488281 172.269531 69.273438 C 173.113281 62.054688 178.988281 56.28125 186.203125 55.585938 C 188.492188 55.335938 190.730469 55.636719 192.773438 56.28125 C 198.992188 58.371094 203.523438 64.246094 203.523438 71.164062 C 203.523438 77.582031 199.691406 83.058594 194.167969 85.496094 L 194.167969 97.34375 C 208.5 97.34375 210.042969 62.105469 234.480469 66.335938 C 251.003906 69.222656 267.527344 70.765625 279.867188 68.128906 C 281.113281 67.878906 282.207031 69.023438 281.859375 70.21875 C 280.265625 75.941406 274.445312 88.683594 253.042969 86.890625 Z M 253.042969 86.890625 " fill-opacity="1" fill-rule="nonzero"/>
    </g>
    <path fill="#003554" d="M 241.148438 134.171875 C 241.148438 105.503906 218.003906 102.71875 209.347656 107.394531 C 207.804688 108.242188 206.757812 109.285156 206.359375 110.480469 C 203.722656 118.394531 207.652344 130.6875 222.1875 132.429688 C 222.1875 132.429688 231.542969 145.667969 187.84375 153.679688 C 144.148438 145.71875 153.503906 132.429688 153.503906 132.429688 C 167.988281 130.6875 171.96875 118.394531 169.332031 110.480469 C 169.132812 109.835938 168.734375 109.238281 168.136719 108.6875 C 161.714844 102.46875 134.542969 103.066406 134.542969 134.171875 C 134.542969 148.851562 145.492188 156.667969 159.277344 161.695312 C 145.441406 168.613281 142.457031 178.265625 145.09375 188.171875 C 146.636719 193.992188 154.25 201.957031 170.277344 207.878906 C 166.59375 210.367188 164.007812 213.355469 163.210938 217.1875 C 161.566406 224.949219 165.398438 230.476562 168.632812 233.5625 C 169.480469 234.355469 170.824219 233.5625 170.527344 232.414062 C 170.527344 232.367188 170.476562 232.316406 170.476562 232.21875 C 168.785156 225.347656 173.910156 218.230469 187.894531 213.203125 C 202.078125 218.28125 207.15625 225.496094 205.265625 232.414062 C 204.964844 233.511719 206.359375 234.308594 207.15625 233.511719 C 210.390625 230.425781 214.222656 224.902344 212.582031 217.136719 C 211.785156 213.355469 209.148438 210.367188 205.511719 207.828125 C 221.539062 201.957031 229.152344 193.945312 230.695312 188.121094 C 233.335938 178.167969 230.351562 168.515625 216.511719 161.59375 C 230.296875 156.667969 241.148438 148.851562 241.148438 134.171875 Z M 241.148438 134.171875 " fill-opacity="1" fill-rule="nonzero"/>
    <g fill="#0179bd">
        <path d="M 187.476562 138.351562 C 177.804688 143.1875 157.011719 141.144531 157.011719 132.957031 C 157.011719 124.765625 178.503906 125.710938 187.476562 130.546875 C 196.449219 125.710938 217.9375 124.765625 217.9375 132.957031 C 217.9375 141.144531 197.097656 143.1875 187.476562 138.351562 Z M 187.476562 138.351562 " fill-opacity="1" fill-rule="nonzero"/>
        <path d="M 186.78125 201.3125 C 178.390625 201.3125 173.058594 195.066406 172.3125 189.6875 C 177.804688 192.417969 182.15625 193.554688 187.476562 193.554688 C 192.796875 193.554688 197.097656 192.417969 202.589844 189.6875 C 201.84375 195.066406 196.511719 201.3125 186.78125 201.3125 Z M 186.78125 201.3125 " fill-opacity="1" fill-rule="nonzero"/>
    </g>
</svg>
